<?xml version="1.0" standalone="no"?>
<!DOCTYPE svg PUBLIC "-//W3C//DTD SVG 20010904//EN"
 "http://www.w3.org/TR/2001/REC-SVG-20010904/DTD/svg10.dtd">
<svg version="1.0" xmlns="http://www.w3.org/2000/svg"
 width="1024.000000pt" height="1024.000000pt" viewBox="0 -100 1024.000000 1024.000000"
 preserveAspectRatio="xMidYMid meet">

<g transform="translate(0.000000,1024.000000) scale(0.100000,-0.100000)"
fill="#006BFF" stroke="none">
<path d="M7418 7149 c-132 -19 -363 -149 -413 -232 -10 -17 -23 -26 -31 -23
-13 5 -60 -46 -96 -105 -33 -52 -59 -163 -64 -269 -5 -99 5 -181 43 -364 5
-25 -2 -35 -54 -85 -33 -31 -83 -69 -113 -85 -47 -26 -68 -30 -174 -37 -121
-8 -300 -47 -391 -86 -77 -33 -153 -90 -174 -131 -12 -22 -17 -23 -64 -18 -29
3 -108 8 -177 12 -161 8 -227 -7 -369 -83 l-104 -56 -66 9 c-118 15 -180 8
-351 -36 -91 -24 -174 -45 -186 -47 -17 -4 -28 8 -62 64 -80 135 -159 184
-296 186 -72 1 -88 -3 -136 -29 -113 -60 -161 -129 -190 -274 -6 -30 -18 -64
-28 -76 -26 -33 -167 -132 -212 -150 -38 -15 -45 -15 -97 1 -69 22 -171 16
-260 -15 -75 -26 -81 -23 -200 77 -137 115 -223 157 -447 215 -205 53 -572
-26 -752 -162 -164 -123 -272 -272 -336 -462 l-42 -123 0 -160 c0 -136 3 -173
23 -245 52 -194 115 -309 244 -446 95 -100 186 -174 251 -203 105 -47 137 -60
206 -81 85 -26 179 -70 229 -108 18 -13 66 -75 106 -136 40 -61 99 -136 131
-167 149 -141 485 -321 676 -363 15 -4 108 -7 205 -7 168 0 250 8 423 42 25 5
55 11 67 13 57 10 477 159 551 195 45 23 87 41 92 41 6 0 10 5 10 11 0 5 4 8
9 4 5 -3 15 1 23 8 7 7 63 37 123 67 61 30 144 77 185 104 86 57 207 129 265
158 32 17 37 18 26 4 -12 -14 -12 -16 3 -10 9 3 16 12 16 19 0 13 54 37 63 28
3 -2 11 5 17 17 8 15 18 20 31 17 10 -3 17 -1 13 4 -5 9 9 13 35 10 7 -2 10 2
7 7 -5 9 83 53 204 102 30 12 64 26 75 30 98 42 374 121 485 139 299 49 352
51 505 16 135 -31 282 -43 314 -26 35 19 72 110 78 194 6 78 -8 190 -29 234
-15 32 -162 135 -187 132 -9 -2 -40 5 -70 14 -30 9 -66 17 -80 17 -19 0 -22 3
-12 9 9 6 -1 13 -37 25 -53 18 -75 37 -87 74 -9 31 40 78 91 87 21 4 86 18
144 32 58 13 131 25 162 26 72 2 86 -10 128 -113 40 -97 80 -157 141 -215 128
-120 359 -151 525 -70 77 38 159 125 205 221 33 68 39 90 39 145 -1 138 -39
226 -167 387 -28 34 -43 62 -42 80 0 15 3 21 6 15 7 -18 21 -16 26 5 4 13 5
11 6 -5 0 -13 5 -23 10 -23 4 0 8 60 8 133 0 200 21 247 156 349 216 164 324
329 356 545 17 111 14 177 -9 218 -11 20 -20 49 -20 65 0 16 -4 31 -9 34 -4 3
-14 27 -21 53 -31 115 -132 297 -209 376 -70 74 -160 142 -225 172 -32 14 -60
24 -64 21 -3 -3 -11 -1 -18 5 -8 7 -14 7 -19 -1 -5 -8 -11 -8 -21 1 -8 6 -15
10 -17 8 -24 -43 -24 -42 22 -78 162 -123 261 -225 304 -315 53 -111 61 -146
61 -301 1 -127 -2 -147 -26 -216 -62 -175 -120 -259 -253 -368 -207 -168 -249
-241 -267 -461 -9 -102 -14 -129 -31 -147 -27 -30 -51 -37 -79 -22 -38 20 -47
41 -48 111 0 113 25 212 84 333 62 126 135 218 250 315 160 135 225 266 213
425 -7 78 -24 148 -35 141 -5 -3 -19 19 -32 47 -14 29 -32 61 -40 71 -21 27
-84 86 -91 86 -3 0 -18 11 -33 25 -41 38 -96 59 -178 70 -20 3 -55 9 -76 13
-60 14 -156 -4 -238 -43 -80 -39 -181 -124 -190 -161 -3 -13 -9 -24 -14 -24
-25 0 -40 -169 -19 -229 11 -32 42 -56 58 -46 5 3 12 -4 16 -15 3 -11 11 -20
16 -20 6 0 8 4 5 8 -3 5 4 8 16 8 36 -2 45 47 18 103 -12 26 -20 61 -18 77 3
26 7 29 40 32 98 8 181 -112 148 -215 -30 -90 -133 -168 -220 -166 -98 2 -162
51 -215 164 -35 76 -39 122 -21 230 19 110 47 171 115 255 28 34 48 64 45 67
-3 2 7 7 21 11 14 4 25 11 25 16 0 6 7 10 15 10 8 0 15 6 15 14 0 7 15 21 33
31 17 9 43 23 57 30 40 23 198 95 208 95 14 0 102 61 102 72 0 5 -4 7 -9 4 -5
-3 -14 1 -21 9 -14 17 -141 19 -242 4z m-215 -1273 c32 -14 64 -25 70 -23 7 1
11 -3 10 -9 -1 -7 8 -20 20 -30 21 -19 21 -19 7 1 -14 19 -14 19 8 5 21 -14
28 -39 9 -32 -5 1 -6 -2 -2 -7 3 -6 12 -8 20 -5 9 4 19 -6 28 -28 12 -27 12
-89 5 -368 -5 -184 -11 -345 -13 -357 -6 -25 -51 -44 -81 -32 -12 4 -29 18
-38 31 l-16 22 0 -22 c0 -19 -16 -31 -93 -67 -108 -52 -213 -79 -279 -72 -65
6 -128 55 -167 131 -27 51 -31 69 -31 135 0 63 5 87 25 128 64 129 305 252
493 253 l52 0 0 34 c0 43 -16 85 -38 103 -72 57 -179 62 -295 15 -43 -18 -84
-32 -91 -32 -11 0 -36 46 -49 90 -8 28 12 47 80 76 37 15 76 36 86 46 15 15
34 22 112 41 40 10 111 -1 168 -27z m-636 -137 c35 -13 43 -25 43 -70 0 -42
-11 -54 -60 -64 -19 -4 -51 -18 -72 -31 -21 -13 -42 -24 -47 -24 -14 0 -71
-62 -71 -77 0 -6 -5 -13 -10 -15 -6 -2 -18 -23 -27 -48 -13 -35 -18 -105 -24
-325 -4 -154 -8 -290 -8 -302 -2 -38 -35 -63 -86 -63 -38 0 -47 4 -54 23 -4
12 -10 155 -12 317 -6 440 -4 542 12 575 19 39 66 53 127 36 44 -11 47 -11 97
23 44 29 103 51 152 55 6 1 24 -4 40 -10z m-2234 -151 c23 -9 44 -26 53 -43
17 -34 18 -124 0 -147 -32 -43 -125 -51 -171 -14 -29 23 -30 27 -30 106 0 75
2 83 25 101 28 22 60 21 123 -3z m1468 -55 c26 -9 64 -32 85 -51 22 -19 30
-28 19 -21 -11 7 -1 -7 21 -32 106 -113 130 -275 69 -468 -33 -104 -86 -190
-171 -277 -93 -97 -159 -129 -264 -129 -156 1 -245 61 -326 219 -43 87 -48
103 -52 180 -10 188 63 359 202 474 23 19 45 42 49 51 24 51 275 88 368 54z
m2216 -140 c-3 -10 -5 -2 -5 17 0 19 2 27 5 18 2 -10 2 -26 0 -35z m-2902 1
c46 -43 35 -79 -105 -324 -67 -118 -151 -262 -185 -320 -93 -155 -149 -270
-132 -270 14 0 277 64 327 80 83 25 116 26 130 1 14 -28 13 -106 -3 -119 -7
-6 -105 -32 -217 -57 -113 -26 -249 -57 -303 -71 -54 -13 -102 -24 -107 -24
-15 0 -31 66 -24 96 13 51 65 166 119 264 29 52 96 173 149 267 94 168 146
272 146 294 0 16 -95 6 -224 -25 -60 -14 -110 -26 -112 -26 -15 0 -34 39 -34
70 0 32 6 43 33 63 36 27 72 37 242 67 66 11 149 29 185 40 84 24 82 24 115
-6z m-2355 -55 c19 -6 76 -31 127 -55 73 -35 108 -60 173 -122 44 -43 80 -86
80 -95 0 -10 4 -17 9 -17 8 0 25 -49 21 -59 -1 -2 2 -7 7 -10 5 -3 18 -26 30
-51 52 -115 65 -351 25 -480 -39 -126 -180 -360 -217 -360 -17 0 -26 35 -12
49 8 8 8 11 -1 11 -7 0 -12 5 -12 11 0 5 5 7 12 3 7 -4 8 -3 4 4 -4 7 -2 12 4
12 15 0 48 32 50 50 6 42 -4 39 -41 -12 -26 -35 -47 -54 -55 -51 -16 6 -19 29
-5 37 20 13 83 119 110 188 43 107 54 182 41 277 -19 141 -67 233 -181 352
-69 71 -165 124 -268 149 -69 16 -228 8 -295 -16 -144 -50 -272 -159 -330
-281 -43 -89 -72 -245 -61 -332 18 -145 127 -327 244 -410 81 -56 201 -111
259 -118 79 -9 207 16 254 49 15 11 21 9 37 -7 22 -22 30 -42 19 -45 -4 -1
-38 -10 -75 -21 -100 -30 -233 -36 -313 -14 -36 9 -70 18 -76 19 -6 1 -35 14
-65 28 -30 15 -66 30 -81 33 -15 3 -43 19 -63 36 -19 17 -39 28 -45 24 -5 -3
-10 0 -10 8 0 8 -7 17 -15 21 -8 3 -15 15 -15 27 0 15 -5 19 -15 15 -10 -3
-17 4 -22 25 -5 17 -12 29 -16 27 -5 -2 -15 8 -23 22 l-15 25 7 -25 c4 -14 11
-26 15 -28 5 -2 9 -9 9 -16 0 -6 20 -34 45 -63 25 -28 45 -56 45 -61 0 -18
178 -132 245 -157 137 -52 272 -50 431 5 103 35 122 22 28 -20 -89 -40 -132
-49 -234 -50 -277 0 -511 150 -631 405 -119 253 -99 522 55 749 64 95 174 188
296 254 29 15 64 34 78 42 67 36 342 49 432 19z m1592 -119 c10 -13 19 -49 24
-98 7 -82 -3 -823 -12 -847 -8 -19 -69 -38 -99 -31 -13 3 -26 14 -29 24 -3 10
-10 217 -16 461 -7 347 -7 450 3 470 25 52 93 63 129 21z m-318 -60 c14 -5 29
-17 34 -27 14 -25 -2 -806 -18 -856 -6 -21 -25 -53 -42 -73 -25 -29 -36 -34
-58 -29 -20 4 -40 -2 -76 -24 -27 -17 -78 -38 -114 -47 -153 -39 -272 18 -336
161 -26 59 -27 63 -35 373 -4 173 -6 323 -4 334 6 28 21 44 56 58 43 18 75 1
88 -47 5 -21 10 -167 9 -325 0 -280 1 -288 23 -333 32 -63 68 -87 130 -87 51
0 161 34 191 59 9 8 25 36 37 63 20 47 20 54 10 401 l-10 354 30 27 c34 30 46
33 85 18z m3786 -202 c14 -5 26 -8 27 -6 6 9 78 -73 94 -107 84 -181 -118
-397 -297 -316 -50 23 -77 56 -104 127 -35 95 -20 167 50 248 63 71 137 89
230 54z m-5140 -589 c19 -12 38 -27 43 -34 4 -8 49 -45 100 -84 93 -70 141
-120 192 -201 16 -25 63 -80 105 -122 88 -87 117 -99 230 -96 61 1 75 -1 86
-17 18 -25 18 -26 -9 -66 -18 -27 -34 -37 -77 -48 -48 -12 -64 -11 -128 4 -97
23 -179 84 -335 252 -133 143 -222 218 -305 257 -31 15 -68 33 -82 40 -14 6
-31 24 -38 39 -16 33 -4 60 41 88 26 16 42 19 87 14 30 -3 70 -15 90 -26z
m4256 -109 c99 -17 123 -25 146 -47 32 -31 35 -53 11 -75 -31 -27 -60 -29
-160 -11 -182 33 -519 13 -763 -46 -190 -46 -442 -126 -570 -182 -117 -52
-430 -210 -530 -269 -30 -18 -104 -61 -165 -97 -307 -180 -689 -331 -943 -373
-243 -40 -384 -36 -589 15 -120 30 -265 101 -391 191 -99 70 -152 135 -152
185 0 34 36 79 63 79 32 0 80 -33 113 -75 63 -83 212 -167 392 -219 260 -77
514 -64 803 39 41 14 110 39 154 54 97 34 364 168 533 268 175 104 389 223
401 223 5 0 16 6 23 13 18 17 133 72 183 87 22 7 74 27 115 45 67 29 131 49
405 130 267 78 675 107 921 65z m-2111 -372 c-356 -228 -822 -405 -1005 -381
-43 6 -41 7 48 25 150 30 395 104 471 143 39 19 129 60 199 91 70 30 156 72
192 92 172 96 222 112 95 30z"/>
<path d="M7074 5365 c-191 -35 -254 -85 -254 -202 0 -60 36 -118 77 -127 16
-4 52 -2 82 4 56 10 200 81 228 112 20 22 27 96 16 168 -8 54 -9 55 -43 57
-19 1 -67 -4 -106 -12z"/>
<path d="M7266 5124 c-11 -29 -6 -72 9 -78 12 -4 14 0 8 22 -4 15 -7 37 -6 50
1 26 -2 28 -11 6z"/>
<path d="M7295 5130 c3 -5 8 -10 11 -10 2 0 4 5 4 10 0 6 -5 10 -11 10 -5 0
-7 -4 -4 -10z"/>
<path d="M7180 5061 c-20 -17 -31 -33 -26 -38 5 -4 11 -2 13 5 3 6 9 10 13 7
14 -9 50 18 50 37 0 25 -10 23 -50 -11z"/>
<path d="M6755 5020 c-12 -19 8 -60 40 -80 37 -23 138 -27 192 -7 51 18 35 30
-42 32 -51 1 -83 8 -117 25 -27 13 -48 28 -48 32 0 11 -18 10 -25 -2z"/>
<path d="M6188 4950 c-4 -30 -8 -85 -8 -122 0 -61 2 -68 20 -68 18 0 20 7 20
73 0 40 -4 77 -9 83 -5 5 -11 27 -13 49 -3 39 -3 38 -10 -15z"/>
<path d="M5559 5356 c-62 -22 -105 -54 -146 -109 -60 -79 -78 -136 -78 -242 1
-135 47 -220 147 -271 61 -31 119 -32 182 -4 134 60 216 207 216 385 0 39 -8
68 -32 114 -17 33 -33 59 -35 57 -2 -2 -19 11 -38 28 -55 50 -144 68 -216 42z"/>
<path d="M5860 4845 c-15 -38 -131 -150 -186 -177 -80 -40 -131 -44 -199 -13
-32 14 -66 25 -77 25 -13 0 -17 4 -12 13 5 8 2 8 -9 -2 -17 -13 -22 -7 -18 21
0 4 -6 5 -14 2 -8 -4 -15 -10 -15 -16 0 -5 5 -6 11 -2 7 4 10 1 7 -7 -6 -18
38 -54 98 -80 66 -29 158 -29 216 0 25 11 48 21 52 21 4 0 35 26 68 58 63 60
103 124 94 148 -3 9 -1 12 4 9 6 -3 10 1 10 9 0 25 -19 19 -30 -9z"/>
<path d="M4602 4508 c-18 -29 -72 -154 -72 -166 0 -7 71 4 195 32 132 29 167
41 207 68 29 20 42 23 33 8 -3 -5 0 -10 8 -10 8 0 17 7 21 15 3 8 0 15 -7 15
-28 0 -191 -30 -276 -50 -50 -13 -94 -21 -96 -18 -2 2 2 31 10 63 17 72 17 75
6 75 -5 0 -18 -15 -29 -32z"/>
<path d="M5080 4500 c-8 -5 -25 -10 -36 -10 -12 0 -24 -7 -28 -15 -6 -18 -3
-18 47 -4 21 5 37 16 37 24 0 18 0 18 -20 5z"/>
<path d="M1880 4435 c0 -5 5 -17 10 -25 5 -8 10 -10 10 -5 0 6 -5 17 -10 25
-5 8 -10 11 -10 5z"/>
<path d="M4265 4518 c-4 -51 -5 -124 -3 -163 3 -67 4 -70 28 -70 25 0 25 0 28
110 2 81 -1 124 -13 163 -9 28 -21 52 -25 52 -4 0 -11 -42 -15 -92z"/>
<path d="M3980 4413 c0 -28 -45 -118 -71 -143 -40 -38 -144 -81 -208 -87 -52
-5 -66 -2 -105 21 -24 14 -61 45 -81 68 -20 24 -39 42 -43 40 -4 -1 -10 12
-14 30 -4 20 -5 12 -2 -21 6 -63 21 -96 61 -132 45 -43 87 -59 150 -59 117 0
197 35 294 129 51 49 57 68 43 140 -7 33 -24 43 -24 14z"/>
<path d="M7686 4796 c-39 -38 -35 -80 10 -123 41 -39 75 -39 107 -1 38 46 34
85 -14 120 -44 31 -75 33 -103 4z"/>
<path d="M7566 4721 c-9 -13 40 -105 72 -135 33 -30 104 -45 156 -32 36 9 86
82 86 125 l-1 36 -22 -30 c-47 -65 -76 -85 -124 -85 -48 0 -136 36 -127 52 9
14 -6 66 -21 72 -8 3 -17 2 -19 -3z"/>
<path d="M2890 4010 c0 -5 5 -10 10 -10 6 0 10 5 10 10 0 6 -4 10 -10 10 -5 0
-10 -4 -10 -10z"/>
<path d="M3089 3822 c6 -11 33 -34 60 -51 42 -27 57 -32 98 -29 l48 4 -40 17
c-22 10 -59 27 -82 38 -23 11 -46 20 -50 21 -4 0 -16 4 -26 10 -16 8 -17 7 -8
-10z"/>
<path d="M5158 3743 c7 -3 16 -2 19 1 4 3 -2 6 -13 5 -11 0 -14 -3 -6 -6z"/>
<path d="M5120 3719 c0 -5 5 -7 10 -4 6 3 10 8 10 11 0 2 -4 4 -10 4 -5 0 -10
-5 -10 -11z"/>
<path d="M5076 3695 c-16 -14 -36 -25 -45 -25 -9 0 -50 -19 -91 -42 -41 -24
-179 -95 -305 -158 -227 -113 -273 -140 -241 -140 9 0 16 3 16 8 0 4 12 8 26
9 15 0 29 5 33 10 3 5 22 15 41 23 76 29 145 62 155 73 6 7 26 20 45 29 19 10
42 22 50 27 8 5 71 38 140 72 69 34 143 75 165 92 22 17 42 32 44 34 2 2 2 5
0 8 -3 2 -18 -7 -33 -20z"/>
<path d="M2916 3459 c11 -18 203 -140 284 -180 74 -37 208 -80 246 -78 48 1
-124 59 -176 59 -11 0 -20 5 -20 10 0 6 -9 10 -20 10 -12 0 -26 4 -33 10 -75
61 -106 84 -141 101 -42 20 -60 30 -108 62 -30 20 -42 22 -32 6z"/>
<path d="M4265 3285 l-30 -14 30 6 c17 3 34 10 40 14 14 13 -5 10 -40 -6z"/>
<path d="M4170 3262 c0 -4 -19 -9 -42 -11 -24 -1 -49 -8 -58 -15 -8 -8 -35
-17 -60 -21 -25 -4 -54 -11 -65 -16 -33 -13 4 -11 87 5 124 24 229 66 165 66
-15 0 -27 -4 -27 -8z"/>
<path d="M3850 3184 l-55 -14 49 5 c27 3 55 5 62 5 8 0 14 5 14 10 0 11 3 12
-70 -6z"/>
<path d="M5354 3454 c-18 -14 -18 -15 4 -4 12 6 22 13 22 15 0 8 -5 6 -26 -11z"/>
</g>
</svg>
